<svg version="1.1" id="Layer_1" xmlns="http://www.w3.org/2000/svg" xmlns:xlink="http://www.w3.org/1999/xlink" x="0px" y="0px"
	 width="100%" viewBox="0 0 256 256" enable-background="new 0 0 256 256" xml:space="preserve">
<path fill="#02579A" opacity="1.000000" stroke="none" 
	d="
M113.000000,1.000000 
	C123.354225,1.000000 133.708450,1.000000 144.696716,1.379937 
	C157.862915,3.023289 169.760330,6.528004 181.246902,11.650366 
	C202.205322,20.996641 219.459702,34.900009 232.917023,53.458496 
	C241.543839,65.355423 248.235931,78.253616 251.992706,92.537025 
	C253.778641,99.327286 255.338013,106.177139 257.000000,113.000000 
	C257.000000,116.361290 257.000000,119.722572 256.660095,123.491669 
	C254.786407,122.659241 253.127045,121.544975 251.737854,120.159775 
	C232.531174,101.008415 213.371918,81.809479 194.161285,62.662094 
	C192.778885,61.284256 191.087708,60.216202 189.564102,58.626312 
	C187.505508,55.986092 185.422913,53.723686 183.258163,51.372028 
	C179.222946,55.392368 175.554626,59.047192 171.440567,63.146084 
	C174.040344,65.326225 176.506271,67.394119 179.068878,69.764633 
	C180.347931,71.442978 181.447769,72.901047 182.725311,74.181877 
	C197.859970,89.355644 213.000168,104.524010 228.183167,119.649353 
	C237.358917,128.790253 246.611893,137.853607 255.905106,147.326050 
	C255.671738,148.826462 255.363449,149.952652 254.758041,150.915985 
	C241.324875,137.700668 228.202438,124.634415 215.032654,111.616043 
	C213.646866,110.246185 211.982239,109.158401 210.248199,107.733307 
	C209.727966,107.323456 209.406525,107.120041 209.008636,106.584541 
	C207.787827,104.848999 206.755280,103.333977 205.482544,102.058647 
	C182.929474,79.459824 160.351013,56.886345 137.760300,34.325142 
	C136.592758,33.159138 135.266586,32.151962 133.600784,30.976452 
	C131.788101,30.951786 130.388931,31.021505 128.546997,31.020197 
	C126.845215,30.949169 125.586166,30.949169 123.552254,30.949169 
	C124.043755,36.761097 124.492271,42.064705 125.039955,47.666641 
	C126.450409,49.819187 127.761681,51.673405 128.635040,53.659359 
	C114.282784,53.908390 102.442116,59.359818 91.547211,67.754143 
	C89.478073,66.333305 87.677315,65.092735 85.932007,63.502007 
	C82.454987,59.166241 78.922501,55.180637 75.861809,51.727348 
	C72.817032,54.273003 70.450073,56.251957 67.746536,58.512314 
	C72.120476,62.423504 76.055573,65.942284 80.085693,69.758240 
	C81.820160,71.727859 83.459610,73.400284 84.986946,75.396530 
	C75.722458,87.641014 72.160843,101.152351 73.118111,115.916885 
	C69.933731,113.193413 67.036797,110.584251 63.862808,107.640427 
	C58.393696,107.305763 53.201630,107.305763 47.997955,107.305763 
	C47.997955,110.920753 47.997955,114.025726 48.185555,117.397247 
	C63.089130,132.448196 77.795990,147.241714 92.546822,161.991241 
	C93.320511,162.764847 94.467812,163.164810 95.373657,163.752991 
	C95.306145,163.767273 95.312141,163.629395 95.324844,163.888733 
	C95.523544,164.432907 95.709549,164.717758 96.089935,165.300323 
	C96.951706,167.611481 97.619080,169.624939 97.931847,171.683899 
	C93.811348,168.483582 90.045456,165.237717 86.181595,161.657150 
	C83.932274,159.122101 81.780914,156.921753 80.575211,155.688583 
	C76.177994,159.498886 72.215225,162.932724 67.810867,166.749207 
	C70.711357,168.939468 73.283150,170.881500 75.927597,173.173859 
	C82.981110,180.819443 89.908218,188.167404 96.976410,195.377075 
	C99.029709,197.471481 101.486710,199.170105 103.837097,201.497284 
	C103.148697,213.693710 107.555313,222.740128 117.947998,229.050308 
	C119.311371,231.071381 120.483597,232.859421 121.941826,234.371689 
	C129.253433,241.954117 136.639862,249.464386 144.000000,257.000000 
	C133.979111,257.000000 123.958214,257.000000 113.303268,256.620056 
	C100.137062,254.976746 88.239647,251.472015 76.753052,246.349640 
	C55.794643,237.003357 38.540276,223.099960 25.082964,204.541489 
	C16.456141,192.644562 9.764052,179.746368 6.007276,165.462967 
	C4.221325,158.672714 2.661993,151.822861 1.000000,145.000000 
	C1.000000,134.645767 1.000000,124.291542 1.379943,113.303276 
	C3.023281,100.137077 6.528010,88.239670 11.650372,76.753075 
	C20.996635,55.794636 34.900024,38.540276 53.458504,25.082962 
	C65.355431,16.456142 78.253632,9.764053 92.537025,6.007281 
	C99.327286,4.221328 106.177139,2.661994 113.000000,1.000000 
z"/>
<path fill="#014470" opacity="1.000000" stroke="none" 
	d="
M129.072968,53.527618 
	C127.761681,51.673405 126.450409,49.819187 125.441757,47.581268 
	C126.829109,47.139122 127.913841,47.080677 129.437988,47.172215 
	C131.144470,47.262882 132.411545,47.203568 134.014282,47.128536 
	C134.014282,41.601341 134.014282,36.336090 134.014282,31.070839 
	C135.266586,32.151962 136.592758,33.159138 137.760300,34.325142 
	C160.351013,56.886345 182.929474,79.459824 205.482544,102.058647 
	C206.755280,103.333977 207.787827,104.848999 208.537766,106.664078 
	C203.554871,107.075699 198.966385,107.075699 194.262726,107.075699 
	C194.262726,110.694557 194.262726,113.741669 194.262726,116.743866 
	C199.738678,116.743866 204.924133,116.743866 210.446976,116.743866 
	C210.446976,113.555511 210.446976,110.747635 210.446976,107.939743 
	C211.982239,109.158401 213.646866,110.246185 215.032654,111.616043 
	C228.202438,124.634415 241.324875,137.700668 254.730225,151.340546 
	C254.112091,156.364426 253.576309,160.906601 252.279755,165.220108 
	C244.352570,191.593246 229.652863,213.484100 207.948151,230.462875 
	C194.305573,241.134995 179.032410,248.751312 162.178619,253.002762 
	C156.478989,254.440536 150.727692,255.673462 145.000000,257.000000 
	C145.000000,257.000000 144.500000,257.000000 144.250000,257.000000 
	C136.639862,249.464386 129.253433,241.954117 121.941826,234.371689 
	C120.483597,232.859421 119.311371,231.071381 118.335495,229.158951 
	C122.103889,229.563782 125.544044,230.220154 129.402985,230.950500 
	C140.767502,230.798370 150.365433,224.091141 152.827164,213.388672 
	C154.317627,206.908798 153.712540,199.946915 154.244553,192.854736 
	C154.801498,190.559235 155.166031,188.611176 155.523682,186.661865 
	C158.563095,170.095795 165.581543,155.276886 174.959930,141.396393 
	C183.581482,128.636093 186.530731,114.625961 184.060043,99.267792 
	C179.938400,73.647163 155.130676,53.023418 129.043732,53.888763 
	C129.045166,53.767853 129.072968,53.527615 129.072968,53.527618 
M185.658066,161.794968 
	C183.495361,159.290787 181.332672,156.786621 179.349289,154.490067 
	C176.346405,157.375336 174.111176,159.523026 172.391037,161.175812 
	C176.109940,165.012558 179.756577,168.774750 182.975998,172.096176 
	C184.956696,170.119690 187.125198,167.955826 189.982513,165.104584 
	C188.844193,164.266754 187.498688,163.276413 185.658066,161.794968 
z"/>
<path fill="#FFFFFF" opacity="1.000000" stroke="none" 
	d="
M112.531342,1.000000 
	C106.177139,2.661994 99.327286,4.221328 92.537025,6.007281 
	C78.253632,9.764053 65.355431,16.456142 53.458504,25.082962 
	C34.900024,38.540276 20.996635,55.794636 11.650372,76.753075 
	C6.528010,88.239670 3.023281,100.137077 1.379943,112.834618 
	C1.000000,75.739716 1.000000,38.479435 1.000000,1.000000 
	C38.020607,1.000000 75.041641,1.000000 112.531342,1.000000 
z"/>
<path fill="#FFFFFF" opacity="1.000000" stroke="none" 
	d="
M257.000000,112.531342 
	C255.338013,106.177139 253.778641,99.327286 251.992706,92.537025 
	C248.235931,78.253616 241.543839,65.355423 232.917023,53.458496 
	C219.459702,34.900009 202.205322,20.996641 181.246902,11.650366 
	C169.760330,6.528004 157.862915,3.023289 145.165375,1.379937 
	C182.260269,1.000000 219.520554,1.000000 257.000000,1.000000 
	C257.000000,38.020607 257.000000,75.041641 257.000000,112.531342 
z"/>
<path fill="#FFFFFF" opacity="1.000000" stroke="none" 
	d="
M1.000000,145.468658 
	C2.661993,151.822861 4.221325,158.672714 6.007276,165.462967 
	C9.764052,179.746368 16.456141,192.644562 25.082964,204.541489 
	C38.540276,223.099960 55.794643,237.003357 76.753052,246.349640 
	C88.239647,251.472015 100.137062,254.976746 112.834610,256.620056 
	C75.739716,257.000000 38.479424,257.000000 1.000000,257.000000 
	C1.000000,219.979401 1.000000,182.958359 1.000000,145.468658 
z"/>
<path fill="#FFFFFF" opacity="1.000000" stroke="none" 
	d="
M145.468658,257.000000 
	C150.727692,255.673462 156.478989,254.440536 162.178619,253.002762 
	C179.032410,248.751312 194.305573,241.134995 207.948151,230.462875 
	C229.652863,213.484100 244.352570,191.593246 252.279755,165.220108 
	C253.576309,160.906601 254.112091,156.364426 255.027313,151.503387 
	C255.363449,149.952652 255.671738,148.826462 255.979889,147.013855 
	C256.319824,145.884933 256.659912,145.442459 257.000000,145.000000 
	C257.000000,182.260284 257.000000,219.520569 257.000000,257.000000 
	C219.979401,257.000000 182.958359,257.000000 145.468658,257.000000 
z"/>
<path fill="#004371" opacity="1.000000" stroke="none" 
	d="
M257.000000,144.531464 
	C256.659912,145.442459 256.319824,145.884933 255.904968,146.639618 
	C246.611893,137.853607 237.358917,128.790253 228.183167,119.649353 
	C213.000168,104.524010 197.859970,89.355644 182.725311,74.181877 
	C181.447769,72.901047 180.347931,71.442978 179.300110,69.492424 
	C182.803146,65.613106 186.171616,62.308609 189.540100,59.004120 
	C191.087708,60.216202 192.778885,61.284256 194.161285,62.662094 
	C213.371918,81.809479 232.531174,101.008415 251.737854,120.159775 
	C253.127045,121.544975 254.786407,122.659241 256.660095,123.949738 
	C257.000000,130.687637 257.000000,137.375290 257.000000,144.531464 
z"/>
<path fill="#FDE801" opacity="1.000000" stroke="none" 
	d="
M98.286453,171.638382 
	C97.619080,169.624939 96.951706,167.611481 96.114258,165.028015 
	C95.733513,164.181778 95.522827,163.905594 95.312141,163.629395 
	C95.312141,163.629395 95.306145,163.767273 95.287811,163.394653 
	C92.019173,157.062332 89.122154,150.873398 85.437607,145.195511 
	C79.584732,136.176224 75.023994,126.741730 73.405556,116.031197 
	C72.160843,101.152351 75.722458,87.641014 85.288246,75.253349 
	C87.739639,72.502373 89.777611,70.218399 91.815582,67.934418 
	C102.442116,59.359818 114.282784,53.908390 128.635040,53.659355 
	C129.072968,53.527615 129.045166,53.767853 129.029739,54.356758 
	C129.001526,72.270531 128.988739,89.595390 128.738678,107.003220 
	C128.340759,107.133850 128.180115,107.181519 127.552063,107.168388 
	C119.926559,107.088882 112.768066,107.108521 105.610641,107.030479 
	C103.135757,107.003502 101.837418,107.781067 102.189552,110.520531 
	C103.670815,122.044159 105.142395,133.569504 106.520020,145.105850 
	C108.429192,161.093338 110.250786,177.091263 111.673126,193.193314 
	C108.854294,193.340210 106.472214,193.378494 103.963425,193.013672 
	C102.249352,186.395676 100.661995,180.180801 99.080406,173.647064 
	C98.804726,172.785217 98.523277,172.242249 98.251549,171.683075 
	C98.261269,171.666870 98.286453,171.638382 98.286453,171.638382 
z"/>
<path fill="#FDFEFE" opacity="1.000000" stroke="none" 
	d="
M104.090141,193.416794 
	C106.472214,193.378494 108.854294,193.340210 112.109230,193.301666 
	C116.036133,193.233841 119.090164,193.166245 122.560150,193.204178 
	C124.997017,193.345795 127.017952,193.381882 129.019943,193.860046 
	C128.995407,206.493576 128.989807,218.685059 128.984207,230.876541 
	C125.544044,230.220154 122.103889,229.563782 118.276230,228.798767 
	C107.555313,222.740128 103.148697,213.693710 103.910812,201.068954 
	C103.967438,197.934586 104.028786,195.675690 104.090141,193.416794 
z"/>
<path fill="#04466F" opacity="1.000000" stroke="none" 
	d="
M73.118111,115.916885 
	C75.023994,126.741730 79.584732,136.176224 85.437607,145.195511 
	C89.122154,150.873398 92.019173,157.062332 95.355331,163.380371 
	C94.467812,163.164810 93.320511,162.764847 92.546822,161.991241 
	C77.795990,147.241714 63.089130,132.448196 48.652065,117.392883 
	C53.934307,117.121979 58.937637,117.121979 64.139862,117.121979 
	C64.139862,113.545349 64.139862,110.760216 64.139862,107.975082 
	C67.036797,110.584251 69.933731,113.193413 73.118111,115.916885 
z"/>
<path fill="#024470" opacity="1.000000" stroke="none" 
	d="
M103.963425,193.013672 
	C104.028786,195.675690 103.967438,197.934586 103.832367,200.621826 
	C101.486710,199.170105 99.029709,197.471481 96.976410,195.377075 
	C89.908218,188.167404 82.981110,180.819443 76.071556,172.870514 
	C79.521759,168.808517 82.900665,165.400192 86.279564,161.991852 
	C90.045456,165.237717 93.811348,168.483582 97.931847,171.683899 
	C98.286453,171.638382 98.261269,171.666870 98.229362,172.004608 
	C98.489853,172.883545 98.782249,173.424728 99.074646,173.965927 
	C100.661995,180.180801 102.249352,186.395676 103.963425,193.013672 
z"/>
<path fill="#F6F3C2" opacity="1.000000" stroke="none" 
	d="
M86.181595,161.657150 
	C82.900665,165.400192 79.521759,168.808517 75.998901,172.520203 
	C73.283150,170.881500 70.711357,168.939468 67.810867,166.749207 
	C72.215225,162.932724 76.177994,159.498886 80.575211,155.688583 
	C81.780914,156.921753 83.932274,159.122101 86.181595,161.657150 
z"/>
<path fill="#F6EF9C" opacity="1.000000" stroke="none" 
	d="
M189.564102,58.626305 
	C186.171616,62.308609 182.803146,65.613106 179.203430,69.189804 
	C176.506271,67.394119 174.040344,65.326225 171.440567,63.146084 
	C175.554626,59.047192 179.222946,55.392368 183.258163,51.372028 
	C185.422913,53.723686 187.505508,55.986092 189.564102,58.626305 
z"/>
<path fill="#F6F3C2" opacity="1.000000" stroke="none" 
	d="
M79.990677,69.461060 
	C76.055573,65.942284 72.120476,62.423504 67.746536,58.512314 
	C70.450073,56.251957 72.817032,54.273003 75.861809,51.727348 
	C78.922501,55.180637 82.454987,59.166241 85.626846,63.648113 
	C83.507698,65.916611 81.749191,67.688835 79.990677,69.461060 
z"/>
<path fill="#F9F5C2" opacity="1.000000" stroke="none" 
	d="
M63.862808,107.640427 
	C64.139862,110.760216 64.139862,113.545349 64.139862,117.121979 
	C58.937637,117.121979 53.934307,117.121979 48.464462,117.126335 
	C47.997955,114.025726 47.997955,110.920753 47.997955,107.305763 
	C53.201630,107.305763 58.393696,107.305763 63.862808,107.640427 
z"/>
<path fill="#F9F19B" opacity="1.000000" stroke="none" 
	d="
M210.248199,107.733307 
	C210.446976,110.747635 210.446976,113.555511 210.446976,116.743866 
	C204.924133,116.743866 199.738678,116.743866 194.262726,116.743866 
	C194.262726,113.741669 194.262726,110.694557 194.262726,107.075699 
	C198.966385,107.075699 203.554871,107.075699 208.614197,106.996170 
	C209.406525,107.120041 209.727966,107.323456 210.248199,107.733307 
z"/>
<path fill="#FEF8C1" opacity="1.000000" stroke="none" 
	d="
M128.998566,47.022228 
	C127.913841,47.080677 126.829109,47.139122 125.342583,47.282944 
	C124.492271,42.064705 124.043755,36.761097 123.552254,30.949169 
	C125.586166,30.949169 126.845215,30.949169 128.547607,31.481199 
	C128.993500,37.016228 128.996033,42.019230 128.998566,47.022228 
z"/>
<path fill="#FEF49C" opacity="1.000000" stroke="none" 
	d="
M129.437988,47.172215 
	C128.996033,42.019230 128.993500,37.016228 128.990356,31.552227 
	C130.388931,31.021505 131.788101,30.951786 133.600784,30.976452 
	C134.014282,36.336090 134.014282,41.601341 134.014282,47.128536 
	C132.411545,47.203568 131.144470,47.262882 129.437988,47.172215 
z"/>
<path fill="#04466F" opacity="1.000000" stroke="none" 
	d="
M80.085693,69.758240 
	C81.749191,67.688835 83.507698,65.916611 85.571381,63.998280 
	C87.677315,65.092735 89.478073,66.333305 91.547211,67.754143 
	C89.777611,70.218399 87.739639,72.502373 85.400368,74.929535 
	C83.459610,73.400284 81.820160,71.727859 80.085693,69.758240 
z"/>
<path fill="#04466F" opacity="1.000000" stroke="none" 
	d="
M95.324844,163.888733 
	C95.522827,163.905594 95.733513,164.181778 95.919876,164.730286 
	C95.709549,164.717758 95.523544,164.432907 95.324844,163.888733 
z"/>
<path fill="#FDD401" opacity="1.000000" stroke="none" 
	d="
M128.975952,106.920258 
	C128.988739,89.595390 129.001526,72.270531 129.028290,54.477673 
	C155.130676,53.023418 179.938400,73.647163 184.060043,99.267792 
	C186.530731,114.625961 183.581482,128.636093 174.959930,141.396393 
	C165.581543,155.276886 158.563095,170.095795 155.523682,186.661865 
	C155.166031,188.611176 154.801498,190.559235 153.797043,192.809875 
	C150.760132,193.038651 148.366348,192.965439 145.982422,192.469757 
	C149.245224,165.376495 152.454315,138.700195 155.802216,112.041321 
	C156.261017,108.387978 155.403244,106.837822 151.455551,106.939400 
	C143.967468,107.132050 136.469696,106.947884 128.975952,106.920258 
z"/>
<path fill="#E7E6E2" opacity="1.000000" stroke="none" 
	d="
M145.972565,192.892227 
	C148.366348,192.965439 150.760132,193.038651 153.601425,193.156738 
	C153.712540,199.946915 154.317627,206.908798 152.827164,213.388672 
	C150.365433,224.091141 140.767502,230.798370 129.402985,230.950500 
	C128.989807,218.685059 128.995407,206.493576 128.999023,193.740875 
	C128.997055,193.179642 128.992722,192.937698 129.422607,192.995285 
	C131.852142,193.002243 133.851776,192.951614 136.309723,192.973969 
	C139.836197,192.995377 142.904388,192.943802 145.972565,192.892227 
z"/>
<path fill="#F6EE9B" opacity="1.000000" stroke="none" 
	d="
M185.905624,162.040527 
	C187.498688,163.276413 188.844193,164.266754 189.982513,165.104584 
	C187.125198,167.955826 184.956696,170.119690 182.975998,172.096176 
	C179.756577,168.774750 176.109940,165.012558 172.391037,161.175812 
	C174.111176,159.523026 176.346405,157.375336 179.349289,154.490067 
	C181.332672,156.786621 183.495361,159.290787 185.905624,162.040527 
z"/>
<path fill="#FA8C00" opacity="1.000000" stroke="none" 
	d="
M145.982422,192.469757 
	C142.904388,192.943802 139.836197,192.995377 136.339294,192.528366 
	C135.995346,189.853729 135.925262,187.678543 136.188889,185.544601 
	C138.744049,164.861359 141.397415,144.190155 143.923889,123.503441 
	C144.653748,117.527328 144.111816,117.066093 137.893494,117.072868 
	C134.906647,117.076118 131.919907,117.182022 128.700623,117.168716 
	C128.468124,117.096008 128.005615,116.942940 128.004227,116.495819 
	C128.008392,113.108856 128.013931,110.169014 128.019485,107.229179 
	C128.180115,107.181519 128.340759,107.133850 128.738678,107.003220 
	C136.469696,106.947884 143.967468,107.132050 151.455551,106.939400 
	C155.403244,106.837822 156.261017,108.387978 155.802216,112.041321 
	C152.454315,138.700195 149.245224,165.376495 145.982422,192.469757 
z"/>
<path fill="#FE9200" opacity="1.000000" stroke="none" 
	d="
M127.552063,107.168388 
	C128.013931,110.169014 128.008392,113.108856 127.539108,116.532379 
	C123.916054,117.030838 120.753876,117.134766 117.598244,117.033836 
	C114.772064,116.943443 113.636909,118.191658 113.929085,120.943420 
	C114.454269,125.889786 114.894577,130.845657 115.465080,135.786621 
	C117.671165,154.892975 119.914650,173.995010 122.144196,193.098663 
	C119.090164,193.166245 116.036133,193.233841 112.545990,193.193069 
	C110.250786,177.091263 108.429192,161.093338 106.520020,145.105850 
	C105.142395,133.569504 103.670815,122.044159 102.189552,110.520531 
	C101.837418,107.781067 103.135757,107.003502 105.610641,107.030479 
	C112.768066,107.108521 119.926559,107.088882 127.552063,107.168388 
z"/>
<path fill="#02579A" opacity="1.000000" stroke="none" 
	d="
M99.080406,173.647064 
	C98.782249,173.424728 98.489853,172.883545 98.219643,172.020813 
	C98.523277,172.242249 98.804726,172.785217 99.080406,173.647064 
z"/>
<path fill="#FEE800" opacity="1.000000" stroke="none" 
	d="
M122.560143,193.204193 
	C119.914650,173.995010 117.671165,154.892975 115.465080,135.786621 
	C114.894577,130.845657 114.454269,125.889786 113.929085,120.943420 
	C113.636909,118.191658 114.772064,116.943443 117.598244,117.033836 
	C120.753876,117.134766 123.916054,117.030838 127.540497,116.979507 
	C128.005615,116.942940 128.468124,117.096008 128.719330,117.613190 
	C128.977936,143.066147 128.985321,168.001923 128.992722,192.937698 
	C128.992722,192.937698 128.997055,193.179642 129.017975,193.298813 
	C127.017952,193.381882 124.997017,193.345795 122.560143,193.204193 
z"/>
<path fill="#FED400" opacity="1.000000" stroke="none" 
	d="
M129.422607,192.995285 
	C128.985321,168.001923 128.977936,143.066147 128.951828,117.685898 
	C131.919907,117.182022 134.906647,117.076118 137.893494,117.072868 
	C144.111816,117.066093 144.653748,117.527328 143.923889,123.503441 
	C141.397415,144.190155 138.744049,164.861359 136.188889,185.544601 
	C135.925262,187.678543 135.995346,189.853729 135.881012,192.455383 
	C133.851776,192.951614 131.852142,193.002243 129.422607,192.995285 
z"/>
</svg>