<svg version="1.1" id="Layer_1" xmlns="http://www.w3.org/2000/svg" xmlns:xlink="http://www.w3.org/1999/xlink" x="0px" y="0px"
	 width="100%" viewBox="0 0 900 861" enable-background="new 0 0 900 861" xml:space="preserve">
<path fill="#FFFFFF" opacity="1.000000" stroke="none" 
	d="
M1.000000,328.000000 
	C1.000000,218.666672 1.000000,109.833336 1.000000,1.000000 
	C301.000000,1.000000 601.000000,1.000000 901.000000,1.000000 
	C901.000000,288.000000 901.000000,575.000000 901.000000,862.000000 
	C601.000000,862.000000 301.000000,862.000000 1.000000,862.000000 
	C1.000000,684.166687 1.000000,506.333344 1.000000,328.000000 
M140.951218,668.546753 
	C162.119919,696.392578 186.582214,720.985779 214.383652,742.185608 
	C238.142120,760.302673 263.545715,775.727905 290.846710,788.005615 
	C334.321167,807.556946 379.768921,819.507385 427.383331,821.582642 
	C449.417999,822.542969 471.612823,821.261597 493.669281,819.917358 
	C519.798584,818.324890 545.091003,811.920410 569.991760,804.023743 
	C607.717407,792.059875 642.515686,774.281006 674.971985,751.684143 
	C710.120300,727.213013 740.268433,697.606384 765.638733,663.243164 
	C782.851257,639.929443 797.312317,614.916992 808.987488,588.288452 
	C827.316589,546.483643 838.198059,502.807587 840.696350,457.348572 
	C842.383789,426.643829 841.592590,395.835083 835.982788,365.384064 
	C829.538513,330.403656 819.227661,296.635864 803.735901,264.588593 
	C780.943787,217.439346 750.100098,176.296036 711.004944,141.348770 
	C688.314941,121.066139 663.660645,103.573997 636.948242,89.088257 
	C605.230835,71.888344 571.777649,59.305313 536.461182,51.405575 
	C512.709900,46.092789 488.738190,43.066956 464.538422,42.175522 
	C435.907928,41.120876 407.461792,43.489517 379.239624,48.827435 
	C337.059570,56.805325 297.305878,71.218285 259.994507,92.419403 
	C225.775833,111.863174 194.667282,135.325775 168.108536,164.475540 
	C157.478394,176.142761 146.909027,187.984009 137.525284,200.645264 
	C112.495941,234.416748 93.399040,271.347290 80.232071,311.375549 
	C69.631035,343.603241 63.831131,376.711121 61.434887,410.396637 
	C59.795135,433.447601 61.250713,456.510559 63.921040,479.496490 
	C67.038139,506.328278 72.997490,532.504517 81.723366,558.011230 
	C95.344757,597.828003 115.060501,634.458801 140.951218,668.546753 
z"/>
<path fill="#75CDE7" opacity="1.000000" stroke="none" 
	d="
M140.719147,668.275269 
	C115.060501,634.458801 95.344757,597.828003 81.723366,558.011230 
	C72.997490,532.504517 67.038139,506.328278 63.921040,479.496490 
	C61.250713,456.510559 59.795135,433.447601 61.434887,410.396637 
	C63.831131,376.711121 69.631035,343.603241 80.232071,311.375549 
	C93.399040,271.347290 112.495941,234.416748 137.525284,200.645264 
	C146.909027,187.984009 157.478394,176.142761 168.108536,164.475540 
	C194.667282,135.325775 225.775833,111.863174 259.994507,92.419403 
	C297.305878,71.218285 337.059570,56.805325 379.239624,48.827435 
	C407.461792,43.489517 435.907928,41.120876 464.538422,42.175522 
	C488.738190,43.066956 512.709900,46.092789 536.461182,51.405575 
	C571.777649,59.305313 605.230835,71.888344 636.948242,89.088257 
	C663.660645,103.573997 688.314941,121.066139 711.004944,141.348770 
	C750.100098,176.296036 780.943787,217.439346 803.735901,264.588593 
	C819.227661,296.635864 829.538513,330.403656 835.982788,365.384064 
	C841.592590,395.835083 842.383789,426.643829 840.696350,457.348572 
	C838.198059,502.807587 827.316589,546.483643 808.987488,588.288452 
	C797.312317,614.916992 782.851257,639.929443 765.638733,663.243164 
	C740.268433,697.606384 710.120300,727.213013 674.971985,751.684143 
	C642.515686,774.281006 607.717407,792.059875 569.991760,804.023743 
	C545.091003,811.920410 519.798584,818.324890 493.669281,819.917358 
	C471.612823,821.261597 449.417999,822.542969 427.383331,821.582642 
	C379.768921,819.507385 334.321167,807.556946 290.846710,788.005615 
	C263.545715,775.727905 238.142120,760.302673 214.383652,742.185608 
	C186.582214,720.985779 162.119919,696.392578 140.719147,668.275269 
M758.047485,240.216660 
	C756.715698,238.391953 755.383911,236.567245 753.933716,234.068619 
	C742.954651,219.547943 732.823975,204.271545 720.755005,190.721680 
	C708.969116,177.489685 695.503174,165.685196 682.238647,153.855225 
	C661.806091,135.632446 638.689758,121.196495 614.375122,108.825638 
	C587.055786,94.925987 558.297668,84.779610 528.309265,78.238831 
	C507.081238,73.608780 485.562073,70.505936 463.901215,70.258163 
	C444.882294,70.040604 425.805145,71.558006 406.814697,73.073494 
	C383.937134,74.899185 361.770752,80.575150 339.972931,87.559059 
	C315.365753,95.443077 292.001373,106.106041 269.615662,119.073097 
	C245.511261,133.035690 223.317139,149.538528 203.127914,168.609131 
	C192.278198,178.857712 182.314484,190.086288 172.419052,201.286224 
	C167.084778,207.323685 162.737335,214.233032 157.374573,221.136505 
	C155.607986,223.688766 153.841385,226.241043 151.547592,229.251129 
	C137.457642,249.545395 125.875740,271.213776 116.470093,294.028778 
	C97.067627,341.092804 87.816483,390.066376 89.121323,441.911255 
	C89.981056,471.970306 94.304390,501.508881 102.575760,530.435425 
	C109.169968,553.496582 117.474190,575.891174 129.084915,597.702209 
	C147.669556,633.688110 171.238373,666.063416 200.894791,693.640259 
	C288.621429,775.215210 392.225800,807.951355 510.432373,789.391052 
	C602.664062,774.909302 677.575562,728.771301 735.939453,655.953674 
	C750.332397,637.996216 762.961243,618.824585 773.520752,597.588806 
	C784.503723,576.433105 793.271179,554.381592 799.717163,531.447266 
	C808.205566,501.245575 813.259460,470.510071 813.373596,438.117615 
	C814.375671,384.237640 803.880005,332.652832 781.457214,283.696442 
	C774.710938,268.967224 766.014038,255.131424 758.047485,240.216660 
z"/>
<path fill="#5C3D04" opacity="1.000000" stroke="none" 
	d="
M772.991211,598.033630 
	C762.961243,618.824585 750.332397,637.996216 735.939453,655.953674 
	C677.575562,728.771301 602.664062,774.909302 510.432373,789.391052 
	C392.225800,807.951355 288.621429,775.215210 200.894791,693.640259 
	C171.238373,666.063416 147.669556,633.688110 129.511917,597.347839 
	C219.479630,597.008179 309.020325,597.022888 398.661407,597.493652 
	C398.786499,629.919373 398.705841,661.889648 398.881989,693.858521 
	C398.965698,709.058716 406.712555,719.272522 421.153259,724.006409 
	C432.136688,727.606873 443.460602,727.880249 454.760620,726.523499 
	C473.769867,724.241211 489.913513,715.809082 489.126831,687.406067 
	C488.302124,657.629333 489.045654,627.809082 489.565857,597.997803 
	C584.348999,598.003052 678.670105,598.018372 772.991211,598.033630 
M363.261139,634.183899 
	C357.767303,628.029663 357.768829,628.034119 349.874725,630.765991 
	C346.427765,631.958862 342.789124,632.778809 339.597290,634.453735 
	C337.928589,635.329468 336.128479,637.602966 335.957123,639.395142 
	C335.262970,646.655396 335.266815,653.979126 334.833221,661.268738 
	C334.593018,665.306824 336.146057,666.882812 340.273834,666.972656 
	C349.203094,667.166992 358.138641,667.602783 367.039062,668.335266 
	C370.710815,668.637451 372.190460,667.351074 372.782532,663.950989 
	C375.552368,648.044678 375.588440,648.050903 364.744812,635.821167 
	C364.414307,635.448486 364.079865,635.079346 363.261139,634.183899 
M526.809082,716.436401 
	C511.986847,724.072144 514.375854,719.474243 516.787903,736.401794 
	C517.010742,737.965942 518.264526,739.792297 519.585571,740.716492 
	C524.082458,743.862244 528.757996,746.772888 533.516724,749.510193 
	C534.764648,750.228149 537.211487,750.756409 538.002625,750.079712 
	C545.526794,743.644348 555.280457,738.979431 556.219543,727.135010 
	C556.472961,723.938660 555.992493,722.082886 552.922668,720.940735 
	C548.557983,719.316833 544.113892,717.784302 539.998474,715.645447 
	C535.563477,713.340515 531.548096,713.083801 526.809082,716.436401 
M196.282532,642.860718 
	C191.569580,645.797913 191.720001,649.191101 193.666397,654.242676 
	C196.288712,661.048523 200.282211,664.915283 207.408386,665.975586 
	C210.179230,666.387939 212.941956,667.256775 215.540665,668.325500 
	C219.035248,669.762756 221.178116,668.600098 222.985123,665.583618 
	C224.949783,662.303955 226.898697,658.953064 229.329178,656.027527 
	C234.011307,650.391785 232.976608,643.783386 231.201263,638.070435 
	C230.580215,636.071899 223.936417,635.941528 220.039703,634.971008 
	C219.720978,634.891602 219.354156,634.979980 219.048843,634.875671 
	C209.714005,631.686401 202.695770,635.337097 196.282532,642.860718 
M670.764038,656.477234 
	C668.758911,655.636475 666.660339,653.898682 664.763367,654.096252 
	C648.823669,655.756653 648.708618,655.966736 643.614258,671.184998 
	C643.509033,671.499146 643.335205,671.791260 643.240417,672.107788 
	C641.865417,676.699890 642.971741,678.231018 647.741455,678.449524 
	C655.033936,678.783386 662.325378,679.368958 669.615906,679.349487 
	C671.433289,679.344604 674.145691,677.880066 674.918091,676.326477 
	C681.235535,663.620117 681.025574,667.121399 672.337769,658.083191 
	C671.992310,657.723816 671.631592,657.379272 670.764038,656.477234 
M279.627747,714.235046 
	C279.468414,715.192627 278.825836,716.514282 279.228363,717.048584 
	C281.808624,720.473633 284.227722,724.220093 287.520630,726.822083 
	C289.117676,728.084045 292.494049,727.144226 295.063385,727.104797 
	C296.385590,727.084412 297.714844,726.916565 299.023407,726.706360 
	C312.168945,724.595276 310.621399,727.429199 311.099365,713.042725 
	C311.305847,706.828003 307.752075,702.863403 304.752777,698.437927 
	C304.157776,697.559998 302.034790,697.151672 300.773438,697.382935 
	C292.489410,698.901855 284.531952,701.034851 281.679016,710.543091 
	C281.354309,711.625183 280.556244,712.565308 279.627747,714.235046 
M582.435364,645.731995 
	C577.480896,641.154419 572.929810,635.960266 567.362854,632.319031 
	C565.292480,630.964783 560.608337,632.738403 557.605164,634.136353 
	C556.514465,634.644043 556.567444,638.214905 556.588013,640.383423 
	C556.638367,645.695435 557.192566,651.006592 557.145630,656.314575 
	C557.066528,665.258057 557.773682,666.462341 566.744690,668.026855 
	C568.265076,668.291992 570.894348,667.309509 571.635193,666.076599 
	C575.482239,659.674500 578.883240,653.004456 582.435364,645.731995 
z"/>
<path fill="#5C3D04" opacity="1.000000" stroke="none" 
	d="
M89.241402,441.003296 
	C87.816483,390.066376 97.067627,341.092804 116.470093,294.028778 
	C125.875740,271.213776 137.457642,249.545395 152.223969,229.039032 
	C174.116760,226.922394 195.297989,224.146759 216.556656,223.288544 
	C265.937378,221.294983 315.084381,225.167267 364.064301,231.298996 
	C375.571136,232.739517 387.040375,234.480255 398.808167,236.122116 
	C398.808167,238.117401 398.808167,239.596359 398.808167,241.075317 
	C398.808105,305.883545 398.809357,370.691803 398.799561,435.500031 
	C398.799347,436.993927 398.674622,438.487793 398.164459,439.991455 
	C294.894440,440.335266 192.067917,440.669281 89.241402,441.003296 
M360.541687,374.162079 
	C361.312653,368.000305 363.939972,362.791046 368.369354,358.419159 
	C370.022125,356.787903 371.319489,354.802734 372.900726,353.091431 
	C375.539246,350.235901 375.198914,347.923584 372.071930,345.643738 
	C366.553833,341.620636 361.155975,337.432831 355.698364,333.326477 
	C348.743652,328.093597 348.845154,328.180908 343.362274,335.239868 
	C338.419952,341.602783 334.866425,349.418457 326.665771,352.583893 
	C320.305176,355.039062 318.148712,359.323120 318.784546,366.116119 
	C319.443115,373.151855 319.042297,373.618378 326.322205,372.994659 
	C332.366608,372.476776 337.293488,373.891388 341.736542,378.044617 
	C344.640656,380.759247 348.025391,382.975159 351.278931,385.296631 
	C355.161194,388.066711 357.022003,387.366882 358.355621,382.692291 
	C359.085754,380.132935 359.656555,377.528107 360.541687,374.162079 
M241.282898,281.179230 
	C241.011002,284.946198 240.503113,288.713623 240.510574,292.480042 
	C240.534897,304.735809 238.943665,302.576965 250.654404,306.135040 
	C253.276382,306.931610 256.698059,307.524261 258.984100,306.499268 
	C263.935547,304.279175 268.482025,301.085266 272.990967,297.993347 
	C274.285706,297.105499 275.952179,294.892120 275.637146,293.817444 
	C272.919403,284.547119 273.338989,273.802795 263.289185,267.829224 
	C260.372101,266.095337 258.476135,265.595001 255.914185,268.001007 
	C251.317856,272.317566 246.539001,276.439697 241.282898,281.179230 
M157.428513,337.815338 
	C156.368744,339.436707 154.179489,341.266174 154.433624,342.645447 
	C156.008728,351.194275 151.808380,355.465790 144.324875,357.747101 
	C143.696838,357.938568 143.111786,358.286560 142.525681,358.597504 
	C139.415054,360.247864 139.332199,362.370972 141.274017,365.111420 
	C151.534836,379.592194 151.511597,379.608307 168.548538,375.065094 
	C169.992584,374.680023 171.428345,374.256348 172.885880,373.930817 
	C176.308960,373.166107 177.621246,371.272369 176.595551,367.755127 
	C175.573334,364.249847 174.500000,360.719757 173.950836,357.123901 
	C172.485626,347.529816 165.153290,342.868042 157.428513,337.815338 
z"/>
<path fill="#92D7E8" opacity="1.000000" stroke="none" 
	d="
M157.944656,220.749008 
	C162.737335,214.233032 167.084778,207.323685 172.419052,201.286224 
	C182.314484,190.086288 192.278198,178.857712 203.127914,168.609131 
	C223.317139,149.538528 245.511261,133.035690 269.615662,119.073097 
	C292.001373,106.106041 315.365753,95.443077 339.972931,87.559059 
	C361.770752,80.575150 383.937134,74.899185 406.814697,73.073494 
	C425.805145,71.558006 444.882294,70.040604 463.901215,70.258163 
	C485.562073,70.505936 507.081238,73.608780 528.309265,78.238831 
	C558.297668,84.779610 587.055786,94.925987 614.375122,108.825638 
	C638.689758,121.196495 661.806091,135.632446 682.238647,153.855225 
	C695.503174,165.685196 708.969116,177.489685 720.755005,190.721680 
	C732.823975,204.271545 742.954651,219.547943 753.630249,234.545532 
	C742.612244,238.033279 731.994080,241.459412 721.163391,243.968903 
	C698.303894,249.265564 675.107910,252.563126 651.630859,253.124039 
	C629.330811,253.656815 606.984619,254.456421 584.718689,253.593185 
	C563.014954,252.751755 541.374084,250.085297 519.731689,247.955704 
	C509.552185,246.954056 499.433716,245.332306 489.268311,243.989014 
	C489.268311,215.679123 489.268311,188.108749 489.268311,159.999680 
	C491.543823,159.999680 493.506775,159.999771 495.469727,159.999664 
	C521.469727,159.998306 547.469727,160.021545 573.469666,159.978760 
	C580.209900,159.967667 583.606689,156.612000 583.879761,149.948959 
	C583.947998,148.285065 583.892517,146.616043 583.892395,144.949387 
	C583.891846,133.962540 581.050293,131.134781 569.983154,131.134567 
	C487.149872,131.132965 404.316620,131.133698 321.483337,131.133713 
	C305.400299,131.133728 303.996521,132.517227 304.031738,148.333420 
	C304.050964,156.968964 307.070435,159.990891 315.773865,159.994904 
	C341.440521,160.006760 367.107147,159.999435 392.773804,159.999619 
	C394.702667,159.999634 396.631500,159.999619 398.611633,159.999619 
	C398.611633,183.336166 398.611633,205.919479 398.611633,228.527985 
	C397.801270,228.624420 397.301819,228.786987 396.832062,228.724915 
	C377.750031,226.202820 358.718994,223.182602 339.578186,221.246887 
	C317.772308,219.041656 295.893585,216.987076 274.002289,216.321259 
	C235.251678,215.142624 196.473740,215.217499 157.944656,220.749008 
z"/>
<path fill="#5C3D04" opacity="1.000000" stroke="none" 
	d="
M758.210693,240.886353 
	C766.014038,255.131424 774.710938,268.967224 781.457214,283.696442 
	C803.880005,332.652832 814.375671,384.237640 812.790222,438.572510 
	C773.613098,439.343811 735.019714,439.850433 696.425476,439.935089 
	C627.320740,440.086670 558.215454,439.984222 489.031189,439.525757 
	C488.951965,376.490845 488.951965,313.918121 488.951965,251.291748 
	C500.176178,252.686615 510.741730,254.050812 521.320312,255.305618 
	C574.742798,261.642548 628.244568,264.059448 681.856262,257.904999 
	C707.884094,254.917084 733.482178,249.801376 758.210693,240.886353 
M748.763672,345.431152 
	C751.063538,340.478912 753.254517,335.471954 755.703308,330.594482 
	C757.216003,327.581696 756.638000,325.566254 753.649170,324.103577 
	C749.324219,321.987061 745.092896,319.658325 740.672058,317.770111 
	C739.183716,317.134460 737.043762,317.040863 735.538208,317.602264 
	C729.631165,319.804871 723.745605,322.140350 718.105164,324.936920 
	C716.440063,325.762482 714.734131,328.186127 714.561462,330.020081 
	C714.080322,335.129028 714.039917,340.349762 714.572876,345.448273 
	C714.777161,347.402374 716.608093,350.009827 718.385071,350.829407 
	C725.006775,353.883362 731.938965,356.257172 738.703064,359.012695 
	C742.032410,360.368988 744.098267,359.592010 745.164612,356.077301 
	C746.176086,352.743439 747.349792,349.458801 748.763672,345.431152 
M609.090454,318.434631 
	C611.156189,315.169617 610.321960,312.872681 606.855652,311.271790 
	C604.448059,310.159821 602.150879,308.811157 599.781738,307.613098 
	C596.423462,305.914886 580.836853,311.061829 579.300110,314.447357 
	C578.910828,315.304993 578.980530,316.395050 578.938599,317.382538 
	C578.346619,331.336151 578.350525,331.336975 591.223816,336.684570 
	C592.755615,337.320892 594.300964,337.925140 595.824951,338.579346 
	C599.298767,340.070587 601.376404,339.081146 602.625427,335.393005 
	C604.480713,329.914764 606.710754,324.563477 609.090454,318.434631 
M602.660828,378.208435 
	C601.539124,378.520233 600.419189,378.838593 599.295410,379.142700 
	C593.931458,380.594116 585.636047,389.968811 585.026550,395.433472 
	C584.925842,396.336151 585.257812,397.413177 585.710999,398.231934 
	C589.961792,405.911926 593.930664,408.144745 602.478088,406.806488 
	C619.297424,404.173096 616.686401,408.482483 616.714111,389.704468 
	C616.725037,382.273895 609.623779,376.384308 602.660828,378.208435 
M533.054871,352.498962 
	C540.402954,346.612183 540.700806,345.862823 536.369080,337.774414 
	C535.600037,336.338348 532.983704,334.848572 531.439026,335.051208 
	C524.691833,335.936066 517.987732,337.277039 511.360962,338.845398 
	C510.030640,339.160278 508.233582,341.129822 508.145996,342.436584 
	C507.779633,347.904999 507.147125,353.596710 508.307556,358.830688 
	C508.944122,361.701965 512.687622,364.264221 515.595032,366.041870 
	C516.584473,366.646790 519.587097,364.765381 521.172607,363.429840 
	C525.101562,360.120178 528.743652,356.469879 533.054871,352.498962 
z"/>
<path fill="#815613" opacity="1.000000" stroke="none" 
	d="
M489.110443,439.987976 
	C558.215454,439.984222 627.320740,440.086670 696.425476,439.935089 
	C735.019714,439.850433 773.613098,439.343811 812.688721,439.035217 
	C813.259460,470.510071 808.205566,501.245575 799.717163,531.447266 
	C793.271179,554.381592 784.503723,576.433105 773.255981,597.811218 
	C678.670105,598.018372 584.348999,598.003052 489.485779,597.534912 
	C488.939514,559.841675 488.918091,522.601135 488.939667,485.360657 
	C488.948456,470.236389 489.050720,455.112213 489.110443,439.987976 
M533.873352,492.347351 
	C540.607239,494.982544 547.341187,497.617737 553.803894,500.146820 
	C557.746887,490.336395 561.438354,481.151947 565.298096,471.548737 
	C561.455566,469.611359 557.346619,467.482513 553.177124,465.479523 
	C552.197449,465.008972 550.818237,464.464844 549.954712,464.802704 
	C543.758362,467.226837 536.357056,468.570496 531.980286,472.917328 
	C529.231506,475.647308 531.056641,482.989044 530.848145,488.262512 
	C530.821960,488.923798 530.672974,489.755188 530.996582,490.215485 
	C531.517639,490.956512 532.385071,491.454071 533.873352,492.347351 
M683.518982,484.075500 
	C681.741760,484.496368 679.886841,484.721558 678.207520,485.388794 
	C676.212830,486.181244 672.886047,487.166962 672.731201,488.395935 
	C672.215698,492.485901 671.589722,497.398987 673.366699,500.741699 
	C675.935669,505.574280 680.568298,509.309784 684.288330,513.477356 
	C693.431885,507.928070 703.877014,506.102386 705.936707,494.306396 
	C701.689819,491.348450 697.211548,488.489777 693.042725,485.234802 
	C690.237549,483.044556 687.515503,482.517120 683.518982,484.075500 
M596.601868,551.912292 
	C598.326782,553.932617 600.051147,555.953430 601.776794,557.973145 
	C606.602478,563.621338 606.602661,563.621155 613.521301,559.219055 
	C612.015930,552.424927 610.486023,545.520264 608.717957,537.540649 
	C601.986145,541.223511 592.834473,534.258301 588.270081,544.471375 
	C590.907471,546.795044 593.512207,549.089905 596.601868,551.912292 
M748.445984,562.939087 
	C751.287415,564.517456 754.128845,566.095886 756.816101,567.588623 
	C762.345459,563.813171 761.673340,558.744629 759.104004,554.053345 
	C758.193604,552.390869 754.985291,551.487854 752.699402,551.180725 
	C747.797852,550.521912 748.448608,555.719788 746.301270,558.031128 
	C744.295898,560.189758 745.117310,561.789429 748.445984,562.939087 
z"/>
<path fill="#815614" opacity="1.000000" stroke="none" 
	d="
M89.181366,441.457275 
	C192.067917,440.669281 294.894440,440.335266 398.258423,440.452026 
	C398.801422,491.625427 398.808777,542.348083 398.801849,593.070740 
	C398.801666,594.393005 398.644836,595.715332 398.561035,597.037598 
	C309.020325,597.022888 219.479630,597.008179 129.470398,596.996582 
	C117.474190,575.891174 109.169968,553.496582 102.575760,530.435425 
	C94.304390,501.508881 89.981056,471.970306 89.181366,441.457275 
M253.859131,558.885742 
	C258.913208,555.766907 263.967285,552.648071 269.063690,549.503113 
	C265.927307,540.351685 266.850128,529.554810 255.729340,525.049683 
	C251.437317,528.876465 247.022507,532.657349 242.823730,536.664673 
	C241.762085,537.677856 240.895599,539.379333 240.795670,540.823730 
	C240.521042,544.794128 240.512344,548.810120 240.810135,552.777161 
	C240.905457,554.046997 242.028290,555.879517 243.130219,556.313049 
	C246.333588,557.573730 249.764496,558.256226 253.859131,558.885742 
M175.520279,474.453186 
	C168.302612,475.240906 161.084930,476.028625 152.993973,476.911682 
	C155.769791,484.570374 149.463058,493.257996 158.543274,498.017181 
	C165.150131,492.071899 171.411728,486.437317 177.869980,480.625793 
	C177.233780,478.901733 176.551880,477.053802 175.520279,474.453186 
M333.701019,469.954071 
	C337.581696,472.057831 341.462402,474.161621 345.325714,476.255981 
	C349.917023,470.749054 349.797424,470.778778 348.446136,465.341614 
	C347.678955,462.254852 346.850006,460.278656 342.923035,459.745117 
	C338.746674,459.177734 337.329041,461.064880 335.969543,464.089386 
	C335.161346,465.887360 334.196838,467.615112 333.701019,469.954071 
z"/>
<path fill="#FDFDFC" opacity="1.000000" stroke="none" 
	d="
M398.661407,597.493652 
	C398.644836,595.715332 398.801666,594.393005 398.801849,593.070740 
	C398.808777,542.348083 398.801422,491.625427 398.701965,440.442230 
	C398.674622,438.487793 398.799347,436.993927 398.799561,435.500031 
	C398.809357,370.691803 398.808105,305.883545 398.808167,241.075317 
	C398.808167,239.596359 398.808167,238.117401 398.808167,236.122116 
	C387.040375,234.480255 375.571136,232.739517 364.064301,231.298996 
	C315.084381,225.167267 265.937378,221.294983 216.556656,223.288544 
	C195.297989,224.146759 174.116760,226.922394 152.487579,228.810120 
	C153.841385,226.241043 155.607986,223.688766 157.659607,220.942749 
	C196.473740,215.217499 235.251678,215.142624 274.002289,216.321259 
	C295.893585,216.987076 317.772308,219.041656 339.578186,221.246887 
	C358.718994,223.182602 377.750031,226.202820 396.832062,228.724915 
	C397.301819,228.786987 397.801270,228.624420 398.611633,228.527985 
	C398.611633,205.919479 398.611633,183.336166 398.611633,159.999619 
	C396.631500,159.999619 394.702667,159.999634 392.773804,159.999619 
	C367.107147,159.999435 341.440521,160.006760 315.773865,159.994904 
	C307.070435,159.990891 304.050964,156.968964 304.031738,148.333420 
	C303.996521,132.517227 305.400299,131.133728 321.483337,131.133713 
	C404.316620,131.133698 487.149872,131.132965 569.983154,131.134567 
	C581.050293,131.134781 583.891846,133.962540 583.892395,144.949387 
	C583.892517,146.616043 583.947998,148.285065 583.879761,149.948959 
	C583.606689,156.612000 580.209900,159.967667 573.469666,159.978760 
	C547.469727,160.021545 521.469727,159.998306 495.469727,159.999664 
	C493.506775,159.999771 491.543823,159.999680 489.268311,159.999680 
	C489.268311,188.108749 489.268311,215.679123 489.268311,243.989014 
	C499.433716,245.332306 509.552185,246.954056 519.731689,247.955704 
	C541.374084,250.085297 563.014954,252.751755 584.718689,253.593185 
	C606.984619,254.456421 629.330811,253.656815 651.630859,253.124039 
	C675.107910,252.563126 698.303894,249.265564 721.163391,243.968903 
	C731.994080,241.459412 742.612244,238.033279 753.689453,234.882477 
	C755.383911,236.567245 756.715698,238.391953 758.129089,240.551514 
	C733.482178,249.801376 707.884094,254.917084 681.856262,257.904999 
	C628.244568,264.059448 574.742798,261.642548 521.320312,255.305618 
	C510.741730,254.050812 500.176178,252.686615 488.951965,251.291748 
	C488.951965,313.918121 488.951965,376.490845 489.031189,439.525757 
	C489.050720,455.112213 488.948456,470.236389 488.939667,485.360657 
	C488.918091,522.601135 488.939514,559.841675 489.023682,597.545044 
	C489.045654,627.809082 488.302124,657.629333 489.126831,687.406067 
	C489.913513,715.809082 473.769867,724.241211 454.760620,726.523499 
	C443.460602,727.880249 432.136688,727.606873 421.153259,724.006409 
	C406.712555,719.272522 398.965698,709.058716 398.881989,693.858521 
	C398.705841,661.889648 398.786499,629.919373 398.661407,597.493652 
M475.024963,597.085144 
	C475.028992,560.507080 475.050873,523.929077 475.028748,487.351013 
	C475.019165,471.560577 474.918640,455.770172 475.016724,439.056732 
	C475.016724,381.048157 475.016724,323.039612 475.016724,265.065308 
	C454.238586,265.065308 434.117432,265.065308 413.097961,265.218292 
	C412.947266,266.854492 412.665497,268.490601 412.664825,270.126862 
	C412.642029,325.107697 412.643982,380.088531 412.655670,435.069366 
	C412.656036,436.728424 412.798737,438.387451 412.644653,440.954224 
	C412.636780,492.131134 412.627411,543.308044 412.630981,594.484985 
	C412.631073,595.639893 412.778198,596.794739 412.647461,598.875671 
	C412.647461,629.419312 412.647461,659.963013 412.647461,690.546509 
	C433.808594,690.546509 454.213654,690.546509 474.528534,690.546509 
	C474.745026,689.997620 474.964081,689.701721 474.963867,689.405945 
	C474.942169,658.941345 474.903961,628.476746 475.024963,597.085144 
z"/>
<path fill="#F9F8F6" opacity="1.000000" stroke="none" 
	d="
M363.504211,634.446167 
	C364.079865,635.079346 364.414307,635.448486 364.744812,635.821167 
	C375.588440,648.050903 375.552368,648.044678 372.782532,663.950989 
	C372.190460,667.351074 370.710815,668.637451 367.039062,668.335266 
	C358.138641,667.602783 349.203094,667.166992 340.273834,666.972656 
	C336.146057,666.882812 334.593018,665.306824 334.833221,661.268738 
	C335.266815,653.979126 335.262970,646.655396 335.957123,639.395142 
	C336.128479,637.602966 337.928589,635.329468 339.597290,634.453735 
	C342.789124,632.778809 346.427765,631.958862 349.874725,630.765991 
	C357.768829,628.034119 357.767303,628.029663 363.504211,634.446167 
M361.830597,660.192871 
	C363.076355,660.376648 364.322083,660.560486 365.499664,660.734253 
	C367.632965,654.053528 367.681915,648.660339 362.162659,643.361023 
	C354.510620,636.013916 354.918976,635.531738 345.142090,640.012146 
	C344.159302,640.462463 342.955719,641.689880 342.875214,642.642822 
	C342.407196,648.184082 342.244507,653.751221 341.941528,660.083923 
	C348.738708,660.083923 354.840240,660.083923 361.830597,660.192871 
z"/>
<path fill="#F9F8F5" opacity="1.000000" stroke="none" 
	d="
M527.140625,716.266235 
	C531.548096,713.083801 535.563477,713.340515 539.998474,715.645447 
	C544.113892,717.784302 548.557983,719.316833 552.922668,720.940735 
	C555.992493,722.082886 556.472961,723.938660 556.219543,727.135010 
	C555.280457,738.979431 545.526794,743.644348 538.002625,750.079712 
	C537.211487,750.756409 534.764648,750.228149 533.516724,749.510193 
	C528.757996,746.772888 524.082458,743.862244 519.585571,740.716492 
	C518.264526,739.792297 517.010742,737.965942 516.787903,736.401794 
	C514.375854,719.474243 511.986847,724.072144 527.140625,716.266235 
M535.817505,721.747681 
	C532.939453,722.552551 529.937073,723.074158 527.228088,724.263977 
	C525.485229,725.029419 522.989807,726.705505 522.905701,728.098633 
	C522.707214,731.386169 522.605042,735.149414 526.748291,736.987976 
	C529.151367,738.054382 531.234802,739.821655 533.544067,741.128723 
	C534.467529,741.651428 536.181458,742.377014 536.568115,742.004944 
	C541.126038,737.618652 548.355591,735.276062 548.452759,726.915161 
	C544.464355,725.268188 540.501587,723.631775 535.817505,721.747681 
z"/>
<path fill="#F9F8F5" opacity="1.000000" stroke="none" 
	d="
M196.551575,642.621033 
	C202.695770,635.337097 209.714005,631.686401 219.048843,634.875671 
	C219.354156,634.979980 219.720978,634.891602 220.039703,634.971008 
	C223.936417,635.941528 230.580215,636.071899 231.201263,638.070435 
	C232.976608,643.783386 234.011307,650.391785 229.329178,656.027527 
	C226.898697,658.953064 224.949783,662.303955 222.985123,665.583618 
	C221.178116,668.600098 219.035248,669.762756 215.540665,668.325500 
	C212.941956,667.256775 210.179230,666.387939 207.408386,665.975586 
	C200.282211,664.915283 196.288712,661.048523 193.666397,654.242676 
	C191.720001,649.191101 191.569580,645.797913 196.551575,642.621033 
M225.192047,645.482666 
	C224.266159,644.431396 223.485489,642.686279 222.387665,642.456482 
	C218.833252,641.712402 215.169556,641.377747 211.532593,641.199707 
	C210.204437,641.134705 208.569183,641.615906 207.532700,642.431030 
	C204.816376,644.567444 202.352753,647.025024 200.056992,649.110596 
	C200.875031,655.115173 203.890900,658.406982 209.616287,659.142700 
	C211.395569,659.371399 213.077499,660.281677 214.849457,660.675232 
	C215.738953,660.872742 217.326630,660.952515 217.583923,660.503845 
	C220.249649,655.854492 222.708344,651.086426 225.192047,645.482666 
z"/>
<path fill="#F9F8F6" opacity="1.000000" stroke="none" 
	d="
M671.020996,656.752563 
	C671.631592,657.379272 671.992310,657.723816 672.337769,658.083191 
	C681.025574,667.121399 681.235535,663.620117 674.918091,676.326477 
	C674.145691,677.880066 671.433289,679.344604 669.615906,679.349487 
	C662.325378,679.368958 655.033936,678.783386 647.741455,678.449524 
	C642.971741,678.231018 641.865417,676.699890 643.240417,672.107788 
	C643.335205,671.791260 643.509033,671.499146 643.614258,671.184998 
	C648.708618,655.966736 648.823669,655.756653 664.763367,654.096252 
	C666.660339,653.898682 668.758911,655.636475 671.020996,656.752563 
M655.739685,663.123474 
	C654.101746,665.495667 652.463806,667.867920 650.382568,670.882080 
	C656.912781,671.329712 662.011963,671.818726 667.118530,671.915039 
	C668.177307,671.935059 669.727478,670.711243 670.206055,669.671631 
	C670.679565,668.643127 670.470215,666.912842 669.893982,665.852600 
	C666.610718,659.811218 661.490540,661.637939 655.739685,663.123474 
z"/>
<path fill="#F8F7F5" opacity="1.000000" stroke="none" 
	d="
M279.802734,713.903137 
	C280.556244,712.565308 281.354309,711.625183 281.679016,710.543091 
	C284.531952,701.034851 292.489410,698.901855 300.773438,697.382935 
	C302.034790,697.151672 304.157776,697.559998 304.752777,698.437927 
	C307.752075,702.863403 311.305847,706.828003 311.099365,713.042725 
	C310.621399,727.429199 312.168945,724.595276 299.023407,726.706360 
	C297.714844,726.916565 296.385590,727.084412 295.063385,727.104797 
	C292.494049,727.144226 289.117676,728.084045 287.520630,726.822083 
	C284.227722,724.220093 281.808624,720.473633 279.228363,717.048584 
	C278.825836,716.514282 279.468414,715.192627 279.802734,713.903137 
M302.247284,707.396606 
	C300.820160,706.758606 299.380096,705.548584 297.968170,705.580566 
	C291.490021,705.727295 289.389618,710.786194 287.269714,715.699219 
	C291.023315,721.132812 294.052124,721.593079 304.320679,717.963379 
	C303.804382,714.749878 303.265778,711.397644 302.247284,707.396606 
z"/>
<path fill="#F8F7F5" opacity="1.000000" stroke="none" 
	d="
M582.437500,646.079834 
	C578.883240,653.004456 575.482239,659.674500 571.635193,666.076599 
	C570.894348,667.309509 568.265076,668.291992 566.744690,668.026855 
	C557.773682,666.462341 557.066528,665.258057 557.145630,656.314575 
	C557.192566,651.006592 556.638367,645.695435 556.588013,640.383423 
	C556.567444,638.214905 556.514465,634.644043 557.605164,634.136353 
	C560.608337,632.738403 565.292480,630.964783 567.362854,632.319031 
	C572.929810,635.960266 577.480896,641.154419 582.437500,646.079834 
M564.120422,643.826660 
	C564.144775,648.458679 564.110046,653.092407 564.249084,657.721008 
	C564.273438,658.531128 565.028259,659.319336 565.445679,660.117676 
	C566.219910,659.665771 567.313599,659.404297 567.715393,658.730347 
	C569.990173,654.915039 572.099243,651.000916 574.406494,646.866272 
	C571.013428,644.024048 567.840698,641.366333 563.815247,637.994385 
	C563.932556,640.643066 563.983154,641.784363 564.120422,643.826660 
z"/>
<path fill="#FAF9F7" opacity="1.000000" stroke="none" 
	d="
M360.420441,374.552917 
	C359.656555,377.528107 359.085754,380.132935 358.355621,382.692291 
	C357.022003,387.366882 355.161194,388.066711 351.278931,385.296631 
	C348.025391,382.975159 344.640656,380.759247 341.736542,378.044617 
	C337.293488,373.891388 332.366608,372.476776 326.322205,372.994659 
	C319.042297,373.618378 319.443115,373.151855 318.784546,366.116119 
	C318.148712,359.323120 320.305176,355.039062 326.665771,352.583893 
	C334.866425,349.418457 338.419952,341.602783 343.362274,335.239868 
	C348.845154,328.180908 348.743652,328.093597 355.698364,333.326477 
	C361.155975,337.432831 366.553833,341.620636 372.071930,345.643738 
	C375.198914,347.923584 375.539246,350.235901 372.900726,353.091431 
	C371.319489,354.802734 370.022125,356.787903 368.369354,358.419159 
	C363.939972,362.791046 361.312653,368.000305 360.420441,374.552917 
M351.839447,376.638428 
	C352.233154,376.032623 352.897400,375.461365 352.979919,374.815796 
	C354.161224,365.574036 358.313049,357.878052 364.928253,351.420349 
	C365.241150,351.114899 365.383667,350.634949 365.787933,349.908478 
	C360.643677,346.011261 355.559509,342.159546 350.337463,338.203369 
	C349.416046,339.298431 348.725006,340.003784 348.166229,340.801727 
	C342.730225,348.564484 337.318573,356.268280 328.085022,360.218964 
	C326.744415,360.792572 326.287933,363.432556 325.422333,365.116364 
	C325.582977,365.575012 325.743622,366.033661 325.904266,366.492340 
	C335.915497,363.218506 342.196503,369.271667 348.792297,374.544983 
	C349.570404,375.167023 350.380951,375.748444 351.839447,376.638428 
z"/>
<path fill="#F8F7F4" opacity="1.000000" stroke="none" 
	d="
M241.559662,280.911133 
	C246.539001,276.439697 251.317856,272.317566 255.914185,268.001007 
	C258.476135,265.595001 260.372101,266.095337 263.289185,267.829224 
	C273.338989,273.802795 272.919403,284.547119 275.637146,293.817444 
	C275.952179,294.892120 274.285706,297.105499 272.990967,297.993347 
	C268.482025,301.085266 263.935547,304.279175 258.984100,306.499268 
	C256.698059,307.524261 253.276382,306.931610 250.654404,306.135040 
	C238.943665,302.576965 240.534897,304.735809 240.510574,292.480042 
	C240.503113,288.713623 241.011002,284.946198 241.559662,280.911133 
M256.646881,277.001984 
	C251.497025,281.346527 245.804077,285.114594 247.496170,293.575378 
	C248.397537,298.082367 252.971664,301.589691 257.189270,299.362122 
	C260.961029,297.370117 264.488525,294.915588 268.154205,292.646271 
	C267.026672,288.258850 266.126404,284.216003 264.933838,280.261292 
	C263.641449,275.975555 260.324646,274.471588 256.646881,277.001984 
z"/>
<path fill="#F9F8F6" opacity="1.000000" stroke="none" 
	d="
M157.829651,337.809479 
	C165.153290,342.868042 172.485626,347.529816 173.950836,357.123901 
	C174.500000,360.719757 175.573334,364.249847 176.595551,367.755127 
	C177.621246,371.272369 176.308960,373.166107 172.885880,373.930817 
	C171.428345,374.256348 169.992584,374.680023 168.548538,375.065094 
	C151.511597,379.608307 151.534836,379.592194 141.274017,365.111420 
	C139.332199,362.370972 139.415054,360.247864 142.525681,358.597504 
	C143.111786,358.286560 143.696838,357.938568 144.324875,357.747101 
	C151.808380,355.465790 156.008728,351.194275 154.433624,342.645447 
	C154.179489,341.266174 156.368744,339.436707 157.829651,337.809479 
M166.302551,356.364563 
	C165.067383,354.257965 163.832230,352.151367 162.597061,350.044769 
	C162.111893,350.081299 161.626724,350.117798 161.141556,350.154327 
	C163.540970,360.359558 153.971970,359.352478 149.762115,363.365967 
	C154.977875,372.039001 156.352188,372.320801 169.000809,367.139099 
	C168.191010,363.830963 167.368484,360.470886 166.302551,356.364563 
z"/>
<path fill="#F7F5F2" opacity="1.000000" stroke="none" 
	d="
M748.607910,345.791809 
	C747.349792,349.458801 746.176086,352.743439 745.164612,356.077301 
	C744.098267,359.592010 742.032410,360.368988 738.703064,359.012695 
	C731.938965,356.257172 725.006775,353.883362 718.385071,350.829407 
	C716.608093,350.009827 714.777161,347.402374 714.572876,345.448273 
	C714.039917,340.349762 714.080322,335.129028 714.561462,330.020081 
	C714.734131,328.186127 716.440063,325.762482 718.105164,324.936920 
	C723.745605,322.140350 729.631165,319.804871 735.538208,317.602264 
	C737.043762,317.040863 739.183716,317.134460 740.672058,317.770111 
	C745.092896,319.658325 749.324219,321.987061 753.649170,324.103577 
	C756.638000,325.566254 757.216003,327.581696 755.703308,330.594482 
	C753.254517,335.471954 751.063538,340.478912 748.607910,345.791809 
M745.323730,327.974518 
	C740.438293,324.202423 735.677368,324.678009 730.205383,327.286346 
	C721.004456,331.672089 720.190491,332.402588 721.639648,342.431702 
	C721.791748,343.484039 722.741821,344.877350 723.680420,345.283478 
	C728.654480,347.435760 733.743164,349.322937 738.625061,351.236572 
	C741.675049,344.112518 744.581238,337.458832 747.298462,330.728882 
	C747.522827,330.173248 746.466370,329.100525 745.323730,327.974518 
z"/>
<path fill="#FAF9F7" opacity="1.000000" stroke="none" 
	d="
M608.935913,318.796387 
	C606.710754,324.563477 604.480713,329.914764 602.625427,335.393005 
	C601.376404,339.081146 599.298767,340.070587 595.824951,338.579346 
	C594.300964,337.925140 592.755615,337.320892 591.223816,336.684570 
	C578.350525,331.336975 578.346619,331.336151 578.938599,317.382538 
	C578.980530,316.395050 578.910828,315.304993 579.300110,314.447357 
	C580.836853,311.061829 596.423462,305.914886 599.781738,307.613098 
	C602.150879,308.811157 604.448059,310.159821 606.855652,311.271790 
	C610.321960,312.872681 611.156189,315.169617 608.935913,318.796387 
M597.466553,327.875275 
	C598.809875,324.188690 600.153198,320.502136 601.443054,316.962311 
	C597.952087,312.996796 594.350952,314.325439 590.582275,316.141296 
	C586.445007,318.134674 583.700623,322.727722 586.299255,325.702240 
	C588.547058,328.275208 593.003235,328.919037 596.483215,330.415588 
	C596.720764,329.806519 596.958313,329.197479 597.466553,327.875275 
z"/>
<path fill="#F9F8F5" opacity="1.000000" stroke="none" 
	d="
M603.058167,378.116333 
	C609.623779,376.384308 616.725037,382.273895 616.714111,389.704468 
	C616.686401,408.482483 619.297424,404.173096 602.478088,406.806488 
	C593.930664,408.144745 589.961792,405.911926 585.710999,398.231934 
	C585.257812,397.413177 584.925842,396.336151 585.026550,395.433472 
	C585.636047,389.968811 593.931458,380.594116 599.295410,379.142700 
	C600.419189,378.838593 601.539124,378.520233 603.058167,378.116333 
M594.268616,397.421631 
	C598.967529,403.306641 604.273071,397.945526 609.671265,399.003540 
	C609.671265,395.769379 610.181702,393.155304 609.523804,390.878815 
	C608.899536,388.718445 607.416626,385.698517 605.674561,385.174866 
	C600.276917,383.552368 593.271484,390.781860 594.268616,397.421631 
z"/>
<path fill="#F9F8F6" opacity="1.000000" stroke="none" 
	d="
M532.777954,352.727722 
	C528.743652,356.469879 525.101562,360.120178 521.172607,363.429840 
	C519.587097,364.765381 516.584473,366.646790 515.595032,366.041870 
	C512.687622,364.264221 508.944122,361.701965 508.307556,358.830688 
	C507.147125,353.596710 507.779633,347.904999 508.145996,342.436584 
	C508.233582,341.129822 510.030640,339.160278 511.360962,338.845398 
	C517.987732,337.277039 524.691833,335.936066 531.439026,335.051208 
	C532.983704,334.848572 535.600037,336.338348 536.369080,337.774414 
	C540.700806,345.862823 540.402954,346.612183 532.777954,352.727722 
M522.245972,343.847412 
	C519.880615,344.312408 517.515259,344.777435 515.056702,345.260773 
	C515.056702,349.339355 515.036926,352.958740 515.084167,356.577271 
	C515.089478,356.983978 515.473694,357.385742 515.873291,358.160156 
	C521.237976,353.280121 526.419922,348.566345 531.601868,343.852570 
	C531.279785,343.321838 530.957764,342.791077 530.635681,342.260345 
	C528.115662,342.742462 525.595581,343.224548 522.245972,343.847412 
z"/>
<path fill="#FDFCFB" opacity="1.000000" stroke="none" 
	d="
M533.489746,492.200928 
	C532.385071,491.454071 531.517639,490.956512 530.996582,490.215485 
	C530.672974,489.755188 530.821960,488.923798 530.848145,488.262512 
	C531.056641,482.989044 529.231506,475.647308 531.980286,472.917328 
	C536.357056,468.570496 543.758362,467.226837 549.954712,464.802704 
	C550.818237,464.464844 552.197449,465.008972 553.177124,465.479523 
	C557.346619,467.482513 561.455566,469.611359 565.298096,471.548737 
	C561.438354,481.151947 557.746887,490.336395 553.803894,500.146820 
	C547.341187,497.617737 540.607239,494.982544 533.489746,492.200928 
z"/>
<path fill="#FDFCFB" opacity="1.000000" stroke="none" 
	d="
M683.925110,483.994080 
	C687.515503,482.517120 690.237549,483.044556 693.042725,485.234802 
	C697.211548,488.489777 701.689819,491.348450 705.936707,494.306396 
	C703.877014,506.102386 693.431885,507.928070 684.288330,513.477356 
	C680.568298,509.309784 675.935669,505.574280 673.366699,500.741699 
	C671.589722,497.398987 672.215698,492.485901 672.731201,488.395935 
	C672.886047,487.166962 676.212830,486.181244 678.207520,485.388794 
	C679.886841,484.721558 681.741760,484.496368 683.925110,483.994080 
z"/>
<path fill="#FCFBF9" opacity="1.000000" stroke="none" 
	d="
M596.359375,551.648560 
	C593.512207,549.089905 590.907471,546.795044 588.270081,544.471375 
	C592.834473,534.258301 601.986145,541.223511 608.717957,537.540649 
	C610.486023,545.520264 612.015930,552.424927 613.521301,559.219055 
	C606.602661,563.621155 606.602478,563.621338 601.776794,557.973145 
	C600.051147,555.953430 598.326782,553.932617 596.359375,551.648560 
z"/>
<path fill="#FAF9F7" opacity="1.000000" stroke="none" 
	d="
M748.110291,562.786011 
	C745.117310,561.789429 744.295898,560.189758 746.301270,558.031128 
	C748.448608,555.719788 747.797852,550.521912 752.699402,551.180725 
	C754.985291,551.487854 758.193604,552.390869 759.104004,554.053345 
	C761.673340,558.744629 762.345459,563.813171 756.816101,567.588623 
	C754.128845,566.095886 751.287415,564.517456 748.110291,562.786011 
z"/>
<path fill="#FDFCFB" opacity="1.000000" stroke="none" 
	d="
M253.482635,559.025635 
	C249.764496,558.256226 246.333588,557.573730 243.130219,556.313049 
	C242.028290,555.879517 240.905457,554.046997 240.810135,552.777161 
	C240.512344,548.810120 240.521042,544.794128 240.795670,540.823730 
	C240.895599,539.379333 241.762085,537.677856 242.823730,536.664673 
	C247.022507,532.657349 251.437317,528.876465 255.729340,525.049683 
	C266.850128,529.554810 265.927307,540.351685 269.063690,549.503113 
	C263.967285,552.648071 258.913208,555.766907 253.482635,559.025635 
z"/>
<path fill="#FCFBFA" opacity="1.000000" stroke="none" 
	d="
M175.695129,474.829529 
	C176.551880,477.053802 177.233780,478.901733 177.869980,480.625793 
	C171.411728,486.437317 165.150131,492.071899 158.543274,498.017181 
	C149.463058,493.257996 155.769791,484.570374 152.993973,476.911682 
	C161.084930,476.028625 168.302612,475.240906 175.695129,474.829529 
z"/>
<path fill="#F9F8F6" opacity="1.000000" stroke="none" 
	d="
M333.501831,469.664246 
	C334.196838,467.615112 335.161346,465.887360 335.969543,464.089386 
	C337.329041,461.064880 338.746674,459.177734 342.923035,459.745117 
	C346.850006,460.278656 347.678955,462.254852 348.446136,465.341614 
	C349.797424,470.778778 349.917023,470.749054 345.325714,476.255981 
	C341.462402,474.161621 337.581696,472.057831 333.501831,469.664246 
z"/>
<path fill="#5C3D03" opacity="1.000000" stroke="none" 
	d="
M413.996246,265.065308 
	C434.117432,265.065308 454.238586,265.065308 475.016724,265.065308 
	C475.016724,323.039612 475.016724,381.048157 474.478638,439.526550 
	C453.965210,440.007233 433.989868,440.018097 414.009399,439.557373 
	C414.001556,381.078979 413.998901,323.072144 413.996246,265.065308 
z"/>
<path fill="#815613" opacity="1.000000" stroke="none" 
	d="
M414.014557,440.028931 
	C433.989868,440.018097 453.965210,440.007233 474.399963,439.988098 
	C474.918640,455.770172 475.019165,471.560577 475.028748,487.351013 
	C475.050873,523.929077 475.028992,560.507080 474.485962,597.540161 
	C453.583557,597.979980 433.220154,597.964783 412.856750,597.949646 
	C412.778198,596.794739 412.631073,595.639893 412.630981,594.484985 
	C412.627411,543.308044 412.636780,492.131134 413.044739,440.497131 
	C413.634766,440.036377 413.824646,440.032654 414.014557,440.028931 
z"/>
<path fill="#5C3D04" opacity="1.000000" stroke="none" 
	d="
M412.752106,598.412659 
	C433.220154,597.964783 453.583557,597.979980 474.406860,598.003662 
	C474.903961,628.476746 474.942169,658.941345 474.963867,689.405945 
	C474.964081,689.701721 474.745026,689.997620 474.528534,690.546509 
	C454.213654,690.546509 433.808594,690.546509 412.647461,690.546509 
	C412.647461,659.963013 412.647461,629.419312 412.752106,598.412659 
z"/>
<path fill="#502F02" opacity="1.000000" stroke="none" 
	d="
M414.009399,439.557373 
	C413.824646,440.032654 413.634766,440.036377 413.159973,440.043274 
	C412.798737,438.387451 412.656036,436.728424 412.655670,435.069366 
	C412.643982,380.088531 412.642029,325.107697 412.664825,270.126862 
	C412.665497,268.490601 412.947266,266.854492 413.547119,265.141785 
	C413.998901,323.072144 414.001556,381.078979 414.009399,439.557373 
z"/>
<path fill="#61430C" opacity="1.000000" stroke="none" 
	d="
M361.386200,660.138428 
	C354.840240,660.083923 348.738708,660.083923 341.941528,660.083923 
	C342.244507,653.751221 342.407196,648.184082 342.875214,642.642822 
	C342.955719,641.689880 344.159302,640.462463 345.142090,640.012146 
	C354.918976,635.531738 354.510620,636.013916 362.162659,643.361023 
	C367.681915,648.660339 367.632965,654.053528 365.499664,660.734253 
	C364.322083,660.560486 363.076355,660.376648 361.386200,660.138428 
z"/>
<path fill="#5F4109" opacity="1.000000" stroke="none" 
	d="
M536.178162,721.871521 
	C540.501587,723.631775 544.464355,725.268188 548.452759,726.915161 
	C548.355591,735.276062 541.126038,737.618652 536.568115,742.004944 
	C536.181458,742.377014 534.467529,741.651428 533.544067,741.128723 
	C531.234802,739.821655 529.151367,738.054382 526.748291,736.987976 
	C522.605042,735.149414 522.707214,731.386169 522.905701,728.098633 
	C522.989807,726.705505 525.485229,725.029419 527.228088,724.263977 
	C529.937073,723.074158 532.939453,722.552551 536.178162,721.871521 
z"/>
<path fill="#5F4109" opacity="1.000000" stroke="none" 
	d="
M225.208313,645.916992 
	C222.708344,651.086426 220.249649,655.854492 217.583923,660.503845 
	C217.326630,660.952515 215.738953,660.872742 214.849457,660.675232 
	C213.077499,660.281677 211.395569,659.371399 209.616287,659.142700 
	C203.890900,658.406982 200.875031,655.115173 200.056992,649.110596 
	C202.352753,647.025024 204.816376,644.567444 207.532700,642.431030 
	C208.569183,641.615906 210.204437,641.134705 211.532593,641.199707 
	C215.169556,641.377747 218.833252,641.712402 222.387665,642.456482 
	C223.485489,642.686279 224.266159,644.431396 225.208313,645.916992 
z"/>
<path fill="#634510" opacity="1.000000" stroke="none" 
	d="
M656.135620,663.054016 
	C661.490540,661.637939 666.610718,659.811218 669.893982,665.852600 
	C670.470215,666.912842 670.679565,668.643127 670.206055,669.671631 
	C669.727478,670.711243 668.177307,671.935059 667.118530,671.915039 
	C662.011963,671.818726 656.912781,671.329712 650.382568,670.882080 
	C652.463806,667.867920 654.101746,665.495667 656.135620,663.054016 
z"/>
<path fill="#61430C" opacity="1.000000" stroke="none" 
	d="
M302.487244,707.721069 
	C303.265778,711.397644 303.804382,714.749878 304.320679,717.963379 
	C294.052124,721.593079 291.023315,721.132812 287.269714,715.699219 
	C289.389618,710.786194 291.490021,705.727295 297.968170,705.580566 
	C299.380096,705.548584 300.820160,706.758606 302.487244,707.721069 
z"/>
<path fill="#654714" opacity="1.000000" stroke="none" 
	d="
M564.077026,643.376160 
	C563.983154,641.784363 563.932556,640.643066 563.815247,637.994385 
	C567.840698,641.366333 571.013428,644.024048 574.406494,646.866272 
	C572.099243,651.000916 569.990173,654.915039 567.715393,658.730347 
	C567.313599,659.404297 566.219910,659.665771 565.445679,660.117676 
	C565.028259,659.319336 564.273438,658.531128 564.249084,657.721008 
	C564.110046,653.092407 564.144775,648.458679 564.077026,643.376160 
z"/>
<path fill="#5F4109" opacity="1.000000" stroke="none" 
	d="
M351.507965,376.493561 
	C350.380951,375.748444 349.570404,375.167023 348.792297,374.544983 
	C342.196503,369.271667 335.915497,363.218506 325.904266,366.492340 
	C325.743622,366.033661 325.582977,365.575012 325.422333,365.116364 
	C326.287933,363.432556 326.744415,360.792572 328.085022,360.218964 
	C337.318573,356.268280 342.730225,348.564484 348.166229,340.801727 
	C348.725006,340.003784 349.416046,339.298431 350.337463,338.203369 
	C355.559509,342.159546 360.643677,346.011261 365.787933,349.908478 
	C365.383667,350.634949 365.241150,351.114899 364.928253,351.420349 
	C358.313049,357.878052 354.161224,365.574036 352.979919,374.815796 
	C352.897400,375.461365 352.233154,376.032623 351.507965,376.493561 
z"/>
<path fill="#5E3F08" opacity="1.000000" stroke="none" 
	d="
M256.915283,276.752197 
	C260.324646,274.471588 263.641449,275.975555 264.933838,280.261292 
	C266.126404,284.216003 267.026672,288.258850 268.154205,292.646271 
	C264.488525,294.915588 260.961029,297.370117 257.189270,299.362122 
	C252.971664,301.589691 248.397537,298.082367 247.496170,293.575378 
	C245.804077,285.114594 251.497025,281.346527 256.915283,276.752197 
z"/>
<path fill="#634510" opacity="1.000000" stroke="none" 
	d="
M166.424255,356.737671 
	C167.368484,360.470886 168.191010,363.830963 169.000809,367.139099 
	C156.352188,372.320801 154.977875,372.039001 149.760437,363.364380 
	C153.971970,359.352478 163.540970,360.359558 161.141556,350.154327 
	C161.626724,350.117798 162.111893,350.081299 162.597061,350.044769 
	C163.832230,352.151367 165.067383,354.257965 166.424255,356.737671 
z"/>
<path fill="#5F4009" opacity="1.000000" stroke="none" 
	d="
M745.664368,328.121277 
	C746.466370,329.100525 747.522827,330.173248 747.298462,330.728882 
	C744.581238,337.458832 741.675049,344.112518 738.625061,351.236572 
	C733.743164,349.322937 728.654480,347.435760 723.680420,345.283478 
	C722.741821,344.877350 721.791748,343.484039 721.639648,342.431702 
	C720.190491,332.402588 721.004456,331.672089 730.205383,327.286346 
	C735.677368,324.678009 740.438293,324.202423 745.664368,328.121277 
z"/>
<path fill="#62440D" opacity="1.000000" stroke="none" 
	d="
M597.331238,328.231873 
	C596.958313,329.197479 596.720764,329.806519 596.483215,330.415588 
	C593.003235,328.919037 588.547058,328.275208 586.299255,325.702240 
	C583.700623,322.727722 586.445007,318.134674 590.582275,316.141296 
	C594.350952,314.325439 597.952087,312.996796 601.443054,316.962311 
	C600.153198,320.502136 598.809875,324.188690 597.331238,328.231873 
z"/>
<path fill="#634510" opacity="1.000000" stroke="none" 
	d="
M594.024414,397.123260 
	C593.271484,390.781860 600.276917,383.552368 605.674561,385.174866 
	C607.416626,385.698517 608.899536,388.718445 609.523804,390.878815 
	C610.181702,393.155304 609.671265,395.769379 609.671265,399.003540 
	C604.273071,397.945526 598.967529,403.306641 594.024414,397.123260 
z"/>
<path fill="#634510" opacity="1.000000" stroke="none" 
	d="
M522.660767,343.777039 
	C525.595581,343.224548 528.115662,342.742462 530.635681,342.260345 
	C530.957764,342.791077 531.279785,343.321838 531.601868,343.852570 
	C526.419922,348.566345 521.237976,353.280121 515.873291,358.160156 
	C515.473694,357.385742 515.089478,356.983978 515.084167,356.577271 
	C515.036926,352.958740 515.056702,349.339355 515.056702,345.260773 
	C517.515259,344.777435 519.880615,344.312408 522.660767,343.777039 
z"/>
</svg>